<svg xmlns="http://www.w3.org/2000/svg" width="28" height="28" viewBox="0 0 28 28" fill="none">
  <path d="M24.5 14C24.5 19.799 19.799 24.5 14 24.5C12.6033 24.5 11.2704 24.2273 10.0514 23.7323C9.81811 23.6375 9.70147 23.5901 9.60717 23.569C9.51494 23.5483 9.44668 23.5408 9.35215 23.5408C9.25552 23.5407 9.15027 23.5583 8.93976 23.5934L4.78889 24.2852C4.35421 24.3576 4.13688 24.3939 3.97972 24.3264C3.84216 24.2674 3.73255 24.1578 3.67355 24.0203C3.60615 23.8631 3.64237 23.6458 3.71481 23.2111L4.40663 19.0602C4.44171 18.8497 4.45925 18.7445 4.45924 18.6478C4.45923 18.5533 4.45167 18.4851 4.43099 18.3928C4.40986 18.2985 4.36249 18.1819 4.26774 17.9486C3.77269 16.7296 3.5 15.3967 3.5 14C3.5 8.20101 8.20101 3.5 14 3.5C19.799 3.5 24.5 8.20101 24.5 14Z" stroke="#1C1C1C" stroke-width="2" stroke-linecap="round" stroke-linejoin="round"/>
</svg>