<svg xmlns="http://www.w3.org/2000/svg" width="24" height="24" viewBox="0 0 24 24" fill="none">
  <g clip-path="url(#clip0_1820_8843)">
    <path d="M24.0468 10.5C24.0468 10.8604 24.0468 11.2207 24.0299 11.6075C23.9547 11.771 23.9161 11.9212 23.8345 12.0424C23.6139 12.3697 23.3749 12.6846 23.1319 13.02C23.5066 13.5061 23.6091 14.1055 23.5275 14.7377C23.4425 15.3953 23.0892 15.9107 22.5951 16.3261C22.9585 16.8793 23.1152 17.4642 23.0145 18.106C22.9127 18.7546 22.6035 19.2842 22.0756 19.6744C22.5456 20.3743 22.6698 21.1167 22.3983 21.9068C22.2395 22.3687 21.9529 22.7582 21.5554 23.0371C21.1555 23.3177 20.7092 23.4895 20.2 23.4878C17.8409 23.4801 15.4818 23.4838 13.1227 23.4847C12.3893 23.485 11.6531 23.5193 10.9325 23.3423C10.2825 23.1826 9.62788 23.0345 8.99004 22.8344C8.3965 22.6482 7.8256 22.3908 7.2373 22.1862C7.10151 22.1389 7.07661 22.0817 7.07666 21.9607C7.07837 17.9299 7.07762 13.8991 7.08159 9.86835C7.08166 9.79379 7.11602 9.7031 7.16537 9.64737C7.4981 9.2716 7.84013 8.90409 8.17739 8.53231C8.77343 7.87526 9.37527 7.22327 9.96151 6.55757C10.5241 5.91869 11.0692 5.26441 11.6239 4.61846C11.7635 4.45576 11.8222 4.2809 11.8183 4.05797C11.8037 3.22238 11.8112 2.38639 11.813 1.55056C11.8139 1.08825 12.1981 0.661311 12.6547 0.618576C12.982 0.587935 13.3267 0.598175 13.6472 0.666706C14.5816 0.866447 15.3711 1.31902 16.0084 2.05313C16.5917 2.72506 16.9382 3.5018 17.0001 4.36506C17.0662 5.28758 17.0811 6.2206 16.7257 7.11792C16.5348 7.60004 16.4271 8.1151 16.279 8.625C18.1367 8.625 19.9724 8.6149 21.8079 8.62991C22.5555 8.63603 23.1558 8.98409 23.5787 9.59379C23.7709 9.8708 23.893 10.1964 24.0468 10.5Z" fill="#F9B021"/>
    <path d="M0.046875 8.17822C1.91189 8.15625 3.7769 8.15625 5.65689 8.15625C5.65689 13.1225 5.65689 18.0816 5.65689 23.0625C3.80127 23.0625 1.94604 23.0625 0.0688433 23.0625C0.046875 18.1084 0.046875 13.1543 0.046875 8.17822Z" fill="#F9B021"/>
  </g>
  <defs>
    <clipPath id="clip0_1820_8843">
      <rect width="24" height="24" fill="white"/>
    </clipPath>
  </defs>
</svg>