<svg xmlns="http://www.w3.org/2000/svg" width="32" height="32" viewBox="0 0 32 32" fill="none">
  <path d="M27.7451 11.6922C30.095 11.6922 31.9999 9.80299 31.9999 7.47247C31.9999 5.14195 30.095 3.25269 27.7451 3.25269C25.3952 3.25269 23.4902 5.14195 23.4902 7.47247C23.4902 9.80299 25.3952 11.6922 27.7451 11.6922Z" fill="#F9B021"/>
  <path d="M23.2522 5.62634H6.91424C4.02584 5.62634 1.68433 7.94856 1.68433 10.8132V21.011C1.68433 23.8756 4.02584 26.1978 6.91424 26.1978H24.4655C27.3539 26.1978 29.6954 23.8756 29.6954 21.011V12.0164C29.1528 12.274 28.5541 12.4341 27.9226 12.4737V21.011C27.9226 22.9045 26.3748 24.4395 24.4655 24.4395H6.91424C5.00496 24.4395 3.45718 22.9045 3.45718 21.011V10.8132C3.45718 8.91961 5.00496 7.38458 6.91424 7.38458H22.7911C22.8311 6.75818 22.9925 6.16448 23.2522 5.62634Z" fill="black"/>
  <path d="M25.3035 12.0366L22.7441 14.9146L22.7411 14.9181C21.4834 16.3622 20.6838 16.399 20.3088 16.2991C19.836 16.1732 19.4117 15.6859 19.1853 15.1519L19.1783 15.1355L19.1707 15.1194C18.5716 13.8527 17.9224 12.9656 17.1981 12.4548C16.4225 11.9078 15.5948 11.8204 14.8348 12.1025C14.1373 12.3614 13.5839 12.8978 13.1741 13.4309C12.759 13.971 12.4299 14.5879 12.1994 15.141C11.8464 15.897 11.493 16.2438 11.2258 16.3967C10.9785 16.5381 10.7228 16.5613 10.4251 16.4839C9.74787 16.3075 8.99687 15.6365 8.50384 14.9718L8.48299 14.9436L3.68405 9.44653L2.34375 10.5974L7.09744 16.0427C7.68015 16.8193 8.72631 17.8593 9.97499 18.1844C10.6481 18.3597 11.3967 18.3288 12.1117 17.9196C12.8053 17.5228 13.3694 16.8264 13.8174 15.8599L13.8251 15.8433L13.8321 15.8265C14.0179 15.3775 14.2783 14.8947 14.5841 14.4969C14.8996 14.0863 15.2047 13.8425 15.4562 13.7492C15.6456 13.6789 15.8578 13.667 16.1707 13.8876C16.5331 14.1432 17.0179 14.7119 17.5587 15.8512C17.8866 16.6143 18.6254 17.6712 19.8488 17.9972C21.1786 18.3514 22.6246 17.7402 24.0797 16.0708L27.2011 12.5609C26.5204 12.5164 25.8782 12.3321 25.3035 12.0366Z" fill="black"/>
</svg>