<svg xmlns="http://www.w3.org/2000/svg" width="28" height="28" viewBox="0 0 28 28" fill="none">
  <path d="M12.2495 15.7501L24.4995 3.50008M12.3984 16.1328L15.4645 24.0172C15.7346 24.7117 15.8697 25.059 16.0643 25.1604C16.233 25.2483 16.4339 25.2484 16.6027 25.1607C16.7974 25.0596 16.9329 24.7124 17.2038 24.0182L24.8926 4.31581C25.1371 3.6891 25.2594 3.37574 25.1925 3.17551C25.1344 3.00162 24.998 2.86516 24.8241 2.80707C24.6239 2.74018 24.3105 2.86246 23.6838 3.10703L3.98142 10.7958C3.28717 11.0667 2.94004 11.2022 2.83888 11.3969C2.75119 11.5657 2.7513 11.7666 2.8392 11.9353C2.94059 12.1299 3.28787 12.265 3.98244 12.5351L11.8668 15.6012C12.0078 15.6561 12.0783 15.6835 12.1376 15.7258C12.1902 15.7633 12.2363 15.8094 12.2738 15.862C12.3161 15.9213 12.3435 15.9918 12.3984 16.1328Z" stroke="#1C1C1C" stroke-width="2" stroke-linecap="round" stroke-linejoin="round"/>
</svg>
