<svg xmlns="http://www.w3.org/2000/svg" width="176" height="72" viewBox="0 0 176 72" fill="none">
  <path d="M22.5497 0H0L10.5452 71.9999H31.3828C31.3828 55.359 53.6601 51.3503 55.9364 71.9999H71.0733L82.7665 29.8403H63.0768L55.9364 55.359L50.5082 29.8403H35.6631L31.3828 55.359L22.5497 0Z" fill="#484848"/>
  <ellipse cx="76.5596" cy="11.2048" rx="9.35841" ry="9.40574" fill="#F9B021"/>
  <path fill-rule="evenodd" clip-rule="evenodd" d="M128.294 0V71.9397H114.888C114.888 66.6403 107.961 65.1262 106.969 71.9397C101.651 72.544 83.7957 68.6724 81.4997 57.0577C80.9873 51.0278 82.2897 37.8565 91.5978 33.4098C97.409 30.6406 110.203 28.4332 114.888 41.7573V0H128.294ZM99.8293 59.9543C104.998 59.9543 109.188 55.7432 109.188 50.5485C109.188 45.3539 104.998 41.1428 99.8293 41.1428C94.6608 41.1428 90.4709 45.3539 90.4709 50.5485C90.4709 55.7432 94.6608 59.9543 99.8293 59.9543Z" fill="#484848"/>
  <path fill-rule="evenodd" clip-rule="evenodd" d="M176 52.0572C176 29.3152 137.343 20.3995 131.51 52.0572C130.939 57.4307 133.94 70.8546 149.38 71.9011C158.253 72.4848 176 70.762 176 59.2018H165.013C161.293 61.8517 152.071 65.5615 144.946 59.2018C144.019 58.4169 142.181 55.8891 142.243 52.0572H176ZM164.132 46.4422C164.132 38.5226 147.477 33.4971 143.508 45.4644L143.197 46.4422H164.132Z" fill="#484848"/>
</svg>
