<svg xmlns="http://www.w3.org/2000/svg" width="20" height="20" viewBox="0 0 20 20" fill="none">
  <path d="M10.2045 3.86667C12.1206 3.86667 13.4131 4.67778 14.1501 5.35556L17.0299 2.6C15.2612 0.98889 12.9596 0 10.2045 0C6.21358 0 2.76687 2.24445 1.08887 5.51112L4.38819 8.02223C5.21585 5.61112 7.5061 3.86667 10.2045 3.86667Z" fill="#F25022"/>
  <path d="M20 10.2222C20 9.39996 19.932 8.79996 19.7846 8.17773H10.2041V11.8888H15.8277C15.7143 12.8111 15.1021 14.2 13.7415 15.1333L16.9615 17.5777C18.8889 15.8333 20 13.2666 20 10.2222Z" fill="#4285F4"/>
  <path d="M4.39909 11.9778C4.18367 11.3556 4.05896 10.6889 4.05896 10C4.05896 9.31111 4.18367 8.64444 4.38776 8.02222L1.08844 5.51111C0.396825 6.86667 0 8.38889 0 10C0 11.6111 0.396825 13.1333 1.08844 14.4889L4.39909 11.9778Z" fill="#FBBC05"/>
  <path d="M10.2039 20C12.959 20 15.2719 19.1111 16.9613 17.5778L13.7413 15.1333C12.8797 15.7222 11.7232 16.1333 10.2039 16.1333C7.50551 16.1333 5.21526 14.3889 4.39893 11.9778L1.09961 14.4889C2.77761 17.7556 6.21299 20 10.2039 20Z" fill="#34A853"/>
</svg>