<svg xmlns="http://www.w3.org/2000/svg" width="18" height="18" viewBox="0 0 18 18" fill="none">
  <path fill-rule="evenodd" clip-rule="evenodd" d="M8.16675 2.33329C4.94509 2.33329 2.33341 4.94496 2.33341 8.16663C2.33341 11.3883 4.94509 14 8.16675 14C11.3884 14 14.0001 11.3883 14.0001 8.16663C14.0001 4.94496 11.3884 2.33329 8.16675 2.33329ZM0.666748 8.16663C0.666748 4.02449 4.02461 0.666626 8.16675 0.666626C12.3089 0.666626 15.6667 4.02449 15.6667 8.16663C15.6667 12.3088 12.3089 15.6666 8.16675 15.6666C4.02461 15.6666 0.666748 12.3088 0.666748 8.16663Z" fill="#B7B7B7"/>
  <path fill-rule="evenodd" clip-rule="evenodd" d="M12.5776 12.5773C12.903 12.2519 13.4306 12.2519 13.7561 12.5773L17.0894 15.9107C17.4149 16.2361 17.4149 16.7637 17.0894 17.0892C16.764 17.4146 16.2363 17.4146 15.9109 17.0892L12.5776 13.7558C12.2521 13.4304 12.2521 12.9028 12.5776 12.5773Z" fill="#B7B7B7"/>
</svg>
