<svg xmlns="http://www.w3.org/2000/svg" width="26" height="26" viewBox="0 0 26 26" fill="none">
  <rect width="26" height="26" transform="matrix(0 -1 1 0 0 26)" fill="white"/>
  <path d="M14.0833 20.3571L14.0833 8.25626L19.37 13.5429C19.7925 13.9654 20.4858 13.9654 20.9083 13.5429C21.3308 13.1204 21.3308 12.4379 20.9083 12.0154L13.7691 4.87626C13.3466 4.45376 12.6641 4.45376 12.2416 4.87626L5.09164 12.0046C4.88878 12.207 4.77478 12.4818 4.77478 12.7683C4.77478 13.0549 4.88878 13.3297 5.09164 13.5321C5.51414 13.9546 6.19664 13.9546 6.61914 13.5321L11.9166 8.25626V20.3571C11.9166 20.9529 12.4041 21.4404 13 21.4404C13.5958 21.4404 14.0833 20.9529 14.0833 20.3571Z" fill="#1A73E8"/>
</svg>