<svg width="650" height="650" viewBox="0 0 650 650" fill="none" xmlns="http://www.w3.org/2000/svg">
<circle cx="325" cy="325" r="303.5" stroke="white" stroke-width="25" stroke-dasharray="80 80"/>
<path d="M122 457.142V432.852L213.222 332.994C223.927 321.299 232.743 311.134 239.67 302.497C246.598 293.771 251.725 285.584 255.054 277.938C258.473 270.201 260.182 262.104 260.182 253.648C260.182 243.932 257.843 235.52 253.165 228.413C248.577 221.306 242.279 215.819 234.273 211.95C226.266 208.082 217.27 206.148 207.284 206.148C196.669 206.148 187.402 208.352 179.486 212.76C171.659 217.078 165.587 223.151 161.268 230.977C157.04 238.804 154.926 247.98 154.926 258.506H123.08C123.08 242.312 126.813 228.098 134.28 215.864C141.747 203.629 151.912 194.093 164.777 187.256C177.732 180.419 192.26 177 208.364 177C224.557 177 238.906 180.419 251.411 187.256C263.915 194.093 273.721 203.314 280.828 214.919C287.935 226.524 291.489 239.434 291.489 253.648C291.489 263.813 289.644 273.754 285.956 283.47C282.357 293.096 276.06 303.847 267.064 315.722C258.158 327.507 245.788 341.901 229.955 358.903L167.881 425.295V427.455H296.347V457.142H122Z" fill="white"/>
<path d="M339.663 400.466V372.938L461.112 180.778H481.084V223.42H467.589L375.828 368.619V370.778H539.379V400.466H339.663ZM469.749 457.142V180.778H501.595V457.142H469.749Z" fill="white"/>
</svg>
