<svg xmlns="http://www.w3.org/2000/svg" width="16" height="16" viewBox="0 0 16 16" fill="none">
  <path d="M14.6134 7.73335C13.2667 4.60669 10.7334 2.66669 8.00004 2.66669C5.26671 2.66669 2.73338 4.60669 1.38671 7.73335C1.35 7.81746 1.33105 7.90825 1.33105 8.00002C1.33105 8.09179 1.35 8.18258 1.38671 8.26669C2.73338 11.3934 5.26671 13.3334 8.00004 13.3334C10.7334 13.3334 13.2667 11.3934 14.6134 8.26669C14.6501 8.18258 14.669 8.09179 14.669 8.00002C14.669 7.90825 14.6501 7.81746 14.6134 7.73335ZM8.00004 12C5.88671 12 3.88671 10.4734 2.73338 8.00002C3.88671 5.52669 5.88671 4.00002 8.00004 4.00002C10.1134 4.00002 12.1134 5.52669 13.2667 8.00002C12.1134 10.4734 10.1134 12 8.00004 12ZM8.00004 5.33335C7.47263 5.33335 6.95706 5.48975 6.51852 5.78277C6.07999 6.07579 5.7382 6.49226 5.53637 6.97953C5.33453 7.4668 5.28172 8.00298 5.38462 8.52026C5.48751 9.03754 5.74149 9.5127 6.11443 9.88564C6.48737 10.2586 6.96252 10.5126 7.4798 10.6154C7.99709 10.7183 8.53326 10.6655 9.02053 10.4637C9.5078 10.2619 9.92428 9.92007 10.2173 9.48154C10.5103 9.04301 10.6667 8.52744 10.6667 8.00002C10.6667 7.29278 10.3858 6.6145 9.88566 6.1144C9.38557 5.61431 8.70729 5.33335 8.00004 5.33335ZM8.00004 9.33335C7.73634 9.33335 7.47855 9.25515 7.25928 9.10865C7.04002 8.96214 6.86912 8.7539 6.76821 8.51026C6.66729 8.26663 6.64088 7.99854 6.69233 7.7399C6.74378 7.48126 6.87077 7.24368 7.05724 7.05721C7.24371 6.87074 7.48128 6.74375 7.73992 6.69231C7.99857 6.64086 8.26665 6.66726 8.51029 6.76818C8.75392 6.8691 8.96216 7.03999 9.10867 7.25926C9.25518 7.47853 9.33338 7.73631 9.33338 8.00002C9.33338 8.35364 9.1929 8.69278 8.94285 8.94283C8.6928 9.19288 8.35367 9.33335 8.00004 9.33335Z" fill="white"/>
</svg>