<svg xmlns="http://www.w3.org/2000/svg" width="26" height="26" viewBox="0 0 26 26" fill="none">
  <path d="M19.4998 14.0833H14.0832V19.5C14.0832 20.0958 13.5957 20.5833 12.9998 20.5833C12.404 20.5833 11.9165 20.0958 11.9165 19.5V14.0833H6.49984C5.904 14.0833 5.4165 13.5958 5.4165 13C5.4165 12.4041 5.904 11.9166 6.49984 11.9166H11.9165V6.49996C11.9165 5.90413 12.404 5.41663 12.9998 5.41663C13.5957 5.41663 14.0832 5.90413 14.0832 6.49996V11.9166H19.4998C20.0957 11.9166 20.5832 12.4041 20.5832 13C20.5832 13.5958 20.0957 14.0833 19.4998 14.0833Z" fill="#1C1C1C"/>
</svg>