<svg xmlns="http://www.w3.org/2000/svg" width="20" height="20" viewBox="0 0 20 20" fill="none">
  <path d="M4.16191 3.25528C3.94866 3.25528 3.72566 3.32695 3.56291 3.48945C3.23749 3.81528 3.23749 4.36194 3.56291 4.68777L8.79733 9.92194L3.56291 15.1561C3.23749 15.4819 3.23749 16.0286 3.56291 16.3544C3.88841 16.6794 4.43541 16.6794 4.76091 16.3544L9.99524 11.1203L15.2296 16.3544C15.5551 16.6794 16.1021 16.6794 16.4276 16.3544C16.753 16.0286 16.753 15.4819 16.4276 15.1561L11.1932 9.92194L16.4276 4.68777C16.753 4.36194 16.753 3.81528 16.4276 3.48945C16.2648 3.32695 16.0417 3.25528 15.8286 3.25528C15.6153 3.25528 15.3924 3.32695 15.2296 3.48945L9.99524 8.72361L4.76091 3.48945C4.59816 3.32695 4.37516 3.25528 4.16191 3.25528Z" fill="#1C1C1C"/>
</svg>