<svg xmlns="http://www.w3.org/2000/svg" width="28" height="28" viewBox="0 0 28 28" fill="none">
  <path d="M4.44701 15.2433L3.8681 15.7202L4.44701 15.2433ZM23.5524 12.7567L22.9735 13.2335H22.9735L23.5524 12.7567ZM4.44701 12.7567L5.02593 13.2335L4.44701 12.7567ZM23.5524 15.2433L22.9735 14.7665L22.9735 14.7665L23.5524 15.2433ZM21.6323 16.2556C21.3415 16.5506 21.345 17.0255 21.64 17.3162C21.935 17.607 22.4099 17.6035 22.7006 17.3085L21.6323 16.2556ZM12.7164 6.35183C12.3073 6.41628 12.0278 6.80022 12.0923 7.20939C12.1567 7.61856 12.5407 7.89801 12.9498 7.83356L12.7164 6.35183ZM13.9997 20.25C12.0979 20.25 10.2769 19.4074 8.69203 18.2672C7.1131 17.1312 5.83195 15.7451 5.02593 14.7665L3.8681 15.7202C4.71885 16.7531 6.09321 18.2453 7.81601 19.4848C9.53289 20.72 11.6598 21.75 13.9997 21.75V20.25ZM13.9997 7.75C15.9015 7.75 17.7225 8.59259 19.3074 9.73283C20.8863 10.8688 22.1675 12.2549 22.9735 13.2335L24.1313 12.2798C23.2806 11.2469 21.9062 9.75469 20.1834 8.51521C18.4665 7.27999 16.3396 6.25 13.9997 6.25V7.75ZM5.02593 14.7665C4.65151 14.3119 4.65151 13.6881 5.02593 13.2335L3.8681 12.2798C3.03746 13.2883 3.03746 14.7117 3.8681 15.7202L5.02593 14.7665ZM24.1313 15.7202C24.962 14.7117 24.962 13.2883 24.1313 12.2798L22.9735 13.2335C23.3479 13.6881 23.3479 14.3119 22.9735 14.7665L24.1313 15.7202ZM22.9735 14.7665C22.6168 15.1996 22.1645 15.7156 21.6323 16.2556L22.7006 17.3085C23.2692 16.7316 23.7513 16.1816 24.1313 15.7202L22.9735 14.7665ZM18.6541 18.7107C17.2262 19.6217 15.6424 20.25 13.9997 20.25V21.75C16.0244 21.75 17.8884 20.9785 19.4609 19.9752L18.6541 18.7107ZM5.02593 13.2335C5.88319 12.1927 7.27558 10.6938 8.99031 9.52376L8.14485 8.28473C6.26687 9.56618 4.77125 11.1833 3.8681 12.2798L5.02593 13.2335ZM12.9498 7.83356C13.2964 7.77898 13.6466 7.75 13.9997 7.75V6.25C13.5642 6.25 13.136 6.28575 12.7164 6.35183L12.9498 7.83356Z" fill="#707071"/>
  <path d="M3.5 3.5L24.5 24.5" stroke="#707071" stroke-width="1.5" stroke-linecap="round" stroke-linejoin="round"/>
  <path d="M13.094 17.3808C12.5006 17.2217 11.9594 16.9093 11.525 16.4749C11.0906 16.0405 10.7782 15.4993 10.6191 14.9059" stroke="#707071" stroke-linecap="round"/>
</svg>