<svg xmlns="http://www.w3.org/2000/svg" width="28" height="28" viewBox="0 0 28 28" fill="none">
  <path d="M23.5524 12.7567C24.1549 13.4882 24.1549 14.5118 23.5524 15.2433C21.8956 17.2548 18.2414 21 13.9997 21C9.75803 21 6.10379 17.2548 4.44701 15.2433C3.84448 14.5118 3.84449 13.4882 4.44701 12.7567C6.10379 10.7452 9.75803 7 13.9997 7C18.2414 7 21.8956 10.7452 23.5524 12.7567Z" stroke="#707071" stroke-width="1.5"/>
  <path d="M17.5 14C17.5 15.933 15.933 17.5 14 17.5C12.067 17.5 10.5 15.933 10.5 14C10.5 12.067 12.067 10.5 14 10.5C15.933 10.5 17.5 12.067 17.5 14Z" stroke="#707071" stroke-width="1.5"/>
</svg>