<svg xmlns="http://www.w3.org/2000/svg" width="118" height="50" viewBox="0 0 118 50" fill="none">
  <path d="M15.1185 0H0L7.0701 48.2727H21.0407C21.0407 37.1157 35.9766 34.428 37.5028 48.2727H47.6514L55.4912 20.0065H42.2902L37.5028 37.1157L33.8634 20.0065H23.9105L21.0407 37.1157L15.1185 0Z" fill="#484848"/>
  <ellipse cx="51.3301" cy="7.5123" rx="6.27439" ry="6.30612" fill="#F9B021"/>
  <path fill-rule="evenodd" clip-rule="evenodd" d="M86.0153 0V48.2323H77.0273C77.0273 44.6793 72.3833 43.6642 71.718 48.2323C68.1523 48.6374 56.1814 46.0417 54.6421 38.2546C54.2986 34.2118 55.1717 25.3811 61.4124 22.3998C65.3085 20.5431 73.886 19.0632 77.0273 27.9964V0H86.0153ZM66.9312 40.1966C70.3965 40.1966 73.2056 37.3733 73.2056 33.8905C73.2056 30.4077 70.3965 27.5844 66.9312 27.5844C63.466 27.5844 60.6568 30.4077 60.6568 33.8905C60.6568 37.3733 63.466 40.1966 66.9312 40.1966Z" fill="#484848"/>
  <path fill-rule="evenodd" clip-rule="evenodd" d="M118 34.902C118 19.6545 92.0822 13.677 88.1711 34.902C87.7887 38.5047 89.8007 47.5048 100.152 48.2065C106.101 48.5978 118 47.4427 118 39.6922H110.634C108.139 41.4688 101.956 43.9561 97.1797 39.6922C96.5583 39.1659 95.3258 37.4711 95.3675 34.902H118ZM110.043 31.1374C110.043 25.8277 98.8766 22.4583 96.2155 30.4819L96.0068 31.1374H110.043Z" fill="#484848"/>
</svg>